# xmcd
#
# Track frame offsets: 
#        150
#        15673
#        30155
#        43303
#        64815
#
# Disc length: 1145 seconds
#
# Revision: 0
# Processed by: cddbd v1.5.2PL0 Copyright (c) Steve Scherf et al.
# Submitted via: ExactAudioCopy v0.99pb4
#
DISCID=37047705
DTITLE=Hitide Harris Blues Band - Hot Blues Cool Blues Blues With A Fe
DTITLE=eling
DYEAR=1900
DGENRE=Blues
TTITLE0=Shiry Bee
TTITLE1=Great Googa Mooga
TTITLE2=Conversation
TTITLE3=Blowin' In The Wind
TTITLE4=Dirty Frisco
EXTD=
EXTT0=
EXTT1=
EXTT2=
EXTT3=
EXTT4=
PLAYORDER=
